# xmcd
#
# Track frame offsets:
#	150
#	18637
#	36926
#	58728
#	79112
#	94672
#	119098
#	135040
#	155988
#	172011
#	184582
#	200152
#	217452
#	235767
#
# Disc length: 3383 seconds
#
# Revision: 0
# Processed by: cddbd v1.5PL3 Copyright (c) Steve Scherf et al.
# Submitted via: dBpowerAMP V4.0
#
DISCID=d00d350e
DTITLE=Kenny Chesney - Kenny Chesney
DYEAR=2004
DGENRE=Country
TTITLE0=There Goes My Life
TTITLE1=I Go Back
TTITLE2=When the Sun Goes Down
TTITLE3=The Woman With You
TTITLE4=Some People Change
TTITLE5=Anything But Mine
TTITLE6=Keg in the Closet
TTITLE7=When I Think About Everything
TTITLE8=Being Drunk's Alot Like Loving You
TTITLE9=Outta Here
TTITLE10=Old Blue Chair
TTITLE11=Live Those Songs
TTITLE12=What I Need To Do
TTITLE13=Please Come to Boston
EXTD=
EXTT0=
EXTT1=
EXTT2=
EXTT3=
EXTT4=
EXTT5=
EXTT6=
EXTT7=
EXTT8=
EXTT9=
EXTT10=
EXTT11=
EXTT12=
EXTT13=
PLAYORDER=
